<?xml version="1.0" standalone="no"?><!DOCTYPE svg PUBLIC "-//W3C//DTD SVG 1.1//EN" "http://www.w3.org/Graphics/SVG/1.1/DTD/svg11.dtd"><svg t="1701324506414" class="icon" viewBox="0 0 1024 1024" version="1.1" xmlns="http://www.w3.org/2000/svg" p-id="4555" id="mx_n_1701324506415" xmlns:xlink="http://www.w3.org/1999/xlink" width="200" height="200"><path d="M434.278 827.418C184.328 577.468 63.942 292.61 165.386 191.166 259.226 97.326 510 193.402 744.92 406.168c-18.14-20.508-37.14-40.834-57.136-60.83C489.058 146.612 259.38 37.528 109.846 57.11A124.558 124.558 0 0 0 2.252 164.7c-19.582 149.534 89.504 379.212 288.23 577.938 70.882 70.882 145.694 130.326 219.406 176.61 8.362 5.25 16.926-6.402 9.444-12.844a1556.848 1556.848 0 0 1-85.054-78.986z" fill="#B9B1F0" p-id="4556"></path><path d="M589.724 196.58c249.95 249.95 370.334 534.81 268.892 636.252-93.84 93.84-344.614-2.236-579.534-215.002 18.14 20.508 37.14 40.834 57.136 60.83 198.726 198.726 428.404 307.812 577.938 288.23 56.27-7.37 100.224-51.322 107.59-107.59 19.582-149.534-89.504-379.212-288.23-577.938-70.882-70.882-145.694-130.326-219.406-176.61-8.362-5.25-16.926 6.402-9.444 12.844a1554.6 1554.6 0 0 1 85.058 78.984z" fill="#B9B1F0" p-id="4557"></path><path d="M334.502 663.642L151.644 846.5a18.28 18.28 0 0 0 0 25.858 18.228 18.228 0 0 0 12.928 5.356 18.222 18.222 0 0 0 12.928-5.358l182.858-182.858-25.856-25.856z" fill="#B9B1F0" p-id="4558"></path><path d="M164.578754 164.573813a491.333087 245.665543 45 1 0 694.849914 694.849915 491.333087 245.665543 45 1 0-694.849914-694.849915Z" fill="#7364E1" p-id="4559"></path><path d="M254.166873 254.161932a364.636354 181.02619 45 1 0 515.673676 515.673677 364.636354 181.02619 45 1 0-515.673676-515.673677Z" fill="#5F559B" p-id="4560"></path><path d="M352.190691 352.185751a226.00974 116.368836 45 1 0 319.62604 319.626039 226.00974 116.368836 45 1 0-319.62604-319.626039Z" fill="#50418C" p-id="4561"></path><path d="M872.358 151.642a18.28 18.28 0 0 0-25.858 0L598.072 400.07a18.286 18.286 0 0 0 25.858 25.858L872.358 177.498a18.28 18.28 0 0 0 0-25.856z" fill="#B9B1F0" p-id="4562"></path><path d="M671.214 352.786a18.28 18.28 0 0 0-25.858 0l-47.286 47.286a18.286 18.286 0 0 0 25.858 25.858l47.286-47.286a18.278 18.278 0 0 0 0-25.858z" fill="#FFFFFF" p-id="4563"></path><path d="M599.322947 581.046504a110.558 64.64 45.001 1 0-156.349894-156.355352 110.558 64.64 45.001 1 0 156.349894 156.355352Z" fill="#3C2364" p-id="4564"></path></svg>