<?xml version="1.0" standalone="no"?><!DOCTYPE svg PUBLIC "-//W3C//DTD SVG 1.1//EN" "http://www.w3.org/Graphics/SVG/1.1/DTD/svg11.dtd"><svg t="1701334468427" class="icon" viewBox="0 0 1024 1024" version="1.1" xmlns="http://www.w3.org/2000/svg" p-id="11859" xmlns:xlink="http://www.w3.org/1999/xlink" width="200" height="200"><path d="M358.4 1020.928V843.643871h-125.671226v177.284129H132.657548V843.643871H0v-76.403613h132.657548v-415.710968H0v-76.469677h132.657548V94.753032L183.857548 0l48.871226 94.753032v177.284129h123.342452V94.753032L407.271226 0l51.2 94.753032v177.284129h123.342451V94.753032L633.013677 0l51.2 94.753032v180.306581H807.63871V94.753032L858.83871 0l51.2 94.753032v180.306581H1024v76.420129h-113.96129v418.766452H1024v76.420129h-113.96129v177.284129h-102.4V846.699355h-123.425033v177.284129h-102.4V846.699355h-123.342451v177.284129H358.4zM858.83871 761.112774c-16.284903 0-30.257548 18.332903-30.257549 39.737807s13.956129 39.737806 30.257549 39.737806 30.257548-18.332903 30.257548-39.737806-14.03871-39.737806-30.257548-39.737807z m-225.742452 0c-16.284903 0-30.257548 18.332903-30.257548 39.737807s13.956129 39.737806 30.257548 39.737806 30.257548-18.332903 30.257548-39.737806a33.544258 33.544258 0 0 0-30.340129-39.737807z m-225.742452 0c-16.284903 0-30.257548 18.332903-30.257548 39.737807s13.956129 39.737806 30.257548 39.737806 30.257548-18.332903 30.257549-39.737806a33.544258 33.544258 0 0 0-30.340129-39.737807z m-223.413677 0c-16.284903 0-30.257548 18.332903-30.257548 39.737807s13.956129 39.737806 30.257548 39.737806 30.257548-18.332903 30.257548-39.737806-14.055226-39.737806-30.340129-39.737807z m500.43871 6.110968H807.63871v-415.710968h-123.425033z m-225.742452 0h123.342452v-415.710968h-123.507613v415.727484z m-225.742452 0h123.342452v-415.710968h-123.507613v415.727484zM858.83871 268.981677c-16.284903 0-30.257548 18.332903-30.257549 39.737807s13.956129 39.737806 30.257549 39.737806 30.257548-18.332903 30.257548-39.737806-14.03871-39.737806-30.257548-39.737807z m-225.742452 0c-16.284903 0-30.257548 18.332903-30.257548 39.737807s13.956129 39.737806 30.257548 39.737806 30.257548-18.332903 30.257548-39.737806a33.544258 33.544258 0 0 0-30.340129-39.737807z m-225.742452 0c-16.284903 0-30.257548 18.332903-30.257548 39.737807s13.956129 39.737806 30.257548 39.737806 30.257548-18.332903 30.257549-39.737806a33.544258 33.544258 0 0 0-30.340129-39.737807z m-223.413677 0c-16.284903 0-30.257548 18.332903-30.257548 39.737807s13.956129 39.737806 30.257548 39.737806 30.257548-18.332903 30.257548-39.737806-14.055226-39.737806-30.340129-39.737807z" fill="#aad08f" p-id="11860"></path></svg>